<svg width="960" height="640" viewBox="0 0 960 640" fill="none" xmlns="http://www.w3.org/2000/svg">
  <rect width="960" height="640" rx="36" fill="#F7F4EE"/>
  <rect x="60" y="58" width="840" height="524" rx="30" fill="#FFFDF8" stroke="#E0D7C8"/>
  <circle cx="250" cy="214" r="86" fill="#DDEAF6"/>
  <circle cx="250" cy="214" r="58" fill="#F3C7A2"/>
  <rect x="200" y="266" width="100" height="170" rx="38" fill="#3B82D6"/>
  <rect x="152" y="304" width="72" height="20" rx="10" fill="#B0BDCA"/>
  <rect x="290" y="304" width="72" height="20" rx="10" fill="#B0BDCA"/>
  <rect x="206" y="420" width="22" height="110" rx="11" fill="#7E8A95"/>
  <rect x="274" y="420" width="22" height="110" rx="11" fill="#7E8A95"/>
  <circle cx="530" cy="194" r="74" fill="#D5E8D2"/>
  <circle cx="530" cy="194" r="52" fill="#F1C9A6"/>
  <rect x="484" y="246" width="92" height="164" rx="34" fill="#8D66C9"/>
  <rect x="442" y="282" width="68" height="18" rx="9" fill="#B9C8A8"/>
  <rect x="582" y="282" width="68" height="18" rx="9" fill="#B9C8A8"/>
  <rect x="492" y="400" width="18" height="100" rx="9" fill="#7E8A95"/>
  <rect x="548" y="400" width="18" height="100" rx="9" fill="#7E8A95"/>
  <rect x="688" y="156" width="174" height="228" rx="24" fill="#E7ECF5" stroke="#BBC8D8"/>
  <rect x="714" y="192" width="118" height="20" rx="10" fill="#FFFFFF"/>
  <rect x="714" y="234" width="94" height="18" rx="9" fill="#B9C6D7"/>
  <rect x="714" y="270" width="122" height="18" rx="9" fill="#FFFFFF"/>
  <rect x="714" y="306" width="82" height="18" rx="9" fill="#B9C6D7"/>
  <path d="M726 228L740 242L766 214" stroke="#F28B3A" stroke-width="9" stroke-linecap="round" stroke-linejoin="round"/>
  <path d="M138 522H824" stroke="#D7CFC0" stroke-width="16" stroke-linecap="round"/>
</svg>