<svg width="960" height="640" viewBox="0 0 960 640" fill="none" xmlns="http://www.w3.org/2000/svg">
  <rect width="960" height="640" rx="36" fill="#EEF4FA"/>
  <rect x="88" y="70" width="784" height="500" rx="30" fill="#FFFFFF" stroke="#D8E2F0"/>
  <rect x="128" y="118" width="270" height="42" rx="14" fill="#22385D"/>
  <circle cx="214" cy="258" r="68" fill="#E3F2E8"/>
  <circle cx="214" cy="258" r="48" fill="#8AD0A6"/>
  <path d="M190 256L206 272L240 236" stroke="#FFFFFF" stroke-width="10" stroke-linecap="round" stroke-linejoin="round"/>
  <rect x="320" y="214" width="420" height="86" rx="22" fill="#F4F7FB"/>
  <rect x="320" y="316" width="420" height="86" rx="22" fill="#F4F7FB"/>
  <rect x="320" y="418" width="340" height="72" rx="22" fill="#F4F7FB"/>
  <rect x="364" y="240" width="166" height="18" rx="9" fill="#C7D5EA"/>
  <rect x="364" y="270" width="286" height="14" rx="7" fill="#E0E7F0"/>
  <rect x="364" y="342" width="152" height="18" rx="9" fill="#C7D5EA"/>
  <rect x="364" y="372" width="252" height="14" rx="7" fill="#E0E7F0"/>
  <rect x="364" y="444" width="132" height="18" rx="9" fill="#C7D5EA"/>
  <rect x="364" y="472" width="222" height="14" rx="7" fill="#E0E7F0"/>
  <rect x="676" y="198" width="122" height="248" rx="26" fill="#E7EEF7"/>
  <rect x="702" y="238" width="70" height="20" rx="10" fill="#F28B3A"/>
  <rect x="702" y="278" width="88" height="20" rx="10" fill="#C4D3E7"/>
  <rect x="702" y="318" width="96" height="20" rx="10" fill="#8AD0A6"/>
  <rect x="702" y="358" width="78" height="20" rx="10" fill="#C4D3E7"/>
</svg>