<svg width="960" height="720" viewBox="0 0 960 720" fill="none" xmlns="http://www.w3.org/2000/svg">
  <rect width="960" height="720" rx="36" fill="#F5F3EC"/>
  <rect x="64" y="72" width="832" height="576" rx="28" fill="#FCFBF7" stroke="#D8D1C5"/>
  <circle cx="184" cy="210" r="70" fill="#C7D8F5"/>
  <circle cx="184" cy="210" r="56" fill="#F0C8A8"/>
  <rect x="144" y="258" width="80" height="170" rx="34" fill="#FF9A52"/>
  <rect x="108" y="292" width="54" height="18" rx="9" fill="#8FA3B8"/>
  <rect x="206" y="292" width="54" height="18" rx="9" fill="#8FA3B8"/>
  <rect x="148" y="412" width="18" height="102" rx="9" fill="#6C7A89"/>
  <rect x="196" y="412" width="18" height="102" rx="9" fill="#6C7A89"/>
  <rect x="260" y="198" width="110" height="62" rx="16" fill="#DCE6F7" stroke="#9EB2D2"/>
  <rect x="282" y="224" width="70" height="12" rx="6" fill="#AAB8D2"/>
  <rect x="258" y="262" width="114" height="10" rx="5" fill="#D4DCE9"/>
  <rect x="288" y="286" width="84" height="10" rx="5" fill="#D4DCE9"/>
  <circle cx="376" cy="200" r="16" fill="#455C8D"/>
  <path d="M360 214C360 201 367 190 377 190C387 190 395 201 395 214V272H360V214Z" fill="#2D4A7B"/>
  <rect x="404" y="190" width="114" height="184" rx="22" fill="#7F63C5"/>
  <rect x="446" y="352" width="18" height="118" rx="9" fill="#455C8D"/>
  <rect x="472" y="352" width="18" height="118" rx="9" fill="#455C8D"/>
  <rect x="420" y="238" width="82" height="18" rx="9" fill="#C4B8EB"/>
  <rect x="412" y="272" width="98" height="14" rx="7" fill="#B8AEDC"/>
  <rect x="524" y="246" width="120" height="168" rx="24" fill="#F1F0FF" stroke="#C8C3ED"/>
  <rect x="548" y="278" width="72" height="14" rx="7" fill="#8EA1D4"/>
  <rect x="548" y="308" width="92" height="12" rx="6" fill="#D7DBEA"/>
  <rect x="548" y="334" width="62" height="12" rx="6" fill="#D7DBEA"/>
  <rect x="548" y="362" width="82" height="12" rx="6" fill="#D7DBEA"/>
  <rect x="664" y="200" width="176" height="260" rx="26" fill="#D9E4F5" stroke="#A6B6D1"/>
  <rect x="692" y="230" width="120" height="20" rx="10" fill="#FFFFFF"/>
  <rect x="692" y="274" width="104" height="20" rx="10" fill="#AAB9CA"/>
  <rect x="692" y="318" width="96" height="20" rx="10" fill="#FFFFFF"/>
  <rect x="692" y="362" width="128" height="20" rx="10" fill="#B2C0CB"/>
  <path d="M705 270L718 284L744 254" stroke="#F58E3C" stroke-width="10" stroke-linecap="round" stroke-linejoin="round"/>
  <path d="M705 357L718 371L744 341" stroke="#F58E3C" stroke-width="10" stroke-linecap="round" stroke-linejoin="round"/>
  <rect x="62" y="558" width="836" height="18" rx="9" fill="#D7D2C8"/>
</svg>