<svg width="960" height="640" viewBox="0 0 960 640" fill="none" xmlns="http://www.w3.org/2000/svg">
  <rect width="960" height="640" rx="36" fill="#F6F2EA"/>
  <rect x="110" y="58" width="740" height="524" rx="30" fill="#FFFFFF" stroke="#E2D8CA"/>
  <rect x="168" y="112" width="380" height="42" rx="14" fill="#213A61"/>
  <rect x="168" y="176" width="220" height="18" rx="9" fill="#D5DCE7"/>
  <rect x="168" y="210" width="300" height="16" rx="8" fill="#E8EDF4"/>
  <rect x="168" y="242" width="280" height="16" rx="8" fill="#E8EDF4"/>
  <rect x="168" y="284" width="160" height="160" rx="22" fill="#F2F5FA" stroke="#D9E2EF"/>
  <rect x="346" y="284" width="460" height="160" rx="22" fill="#F2F5FA" stroke="#D9E2EF"/>
  <rect x="192" y="310" width="110" height="18" rx="9" fill="#C5D4EA"/>
  <rect x="192" y="342" width="94" height="18" rx="9" fill="#D7E2F0"/>
  <rect x="192" y="374" width="130" height="18" rx="9" fill="#C5D4EA"/>
  <rect x="390" y="312" width="320" height="16" rx="8" fill="#D5DCE7"/>
  <rect x="390" y="342" width="280" height="16" rx="8" fill="#E8EDF4"/>
  <rect x="390" y="372" width="252" height="16" rx="8" fill="#D5DCE7"/>
  <rect x="168" y="470" width="350" height="86" rx="20" fill="#EAF3FF"/>
  <rect x="542" y="470" width="264" height="86" rx="20" fill="#FFF1E2"/>
  <path d="M196 512L218 534L248 494" stroke="#F28B3A" stroke-width="9" stroke-linecap="round" stroke-linejoin="round"/>
  <path d="M570 515H764" stroke="#D5B48D" stroke-width="12" stroke-linecap="round"/>
  <circle cx="728" cy="210" r="44" fill="#D8E8F7"/>
  <rect x="706" y="246" width="44" height="94" rx="18" fill="#7B63C6"/>
  <rect x="674" y="260" width="28" height="10" rx="5" fill="#8EA0B6"/>
  <rect x="748" y="260" width="28" height="10" rx="5" fill="#8EA0B6"/>
</svg>